<svg xmlns="http://www.w3.org/2000/svg" viewBox="0 0 74.5 73.03" width="16" height="16">
    <defs>
        <style>.cls-1{fill:#d1d7e3;}.cls-2{fill:#fff;}</style>
    </defs>
    <title>Recurso 116</title>
    <g id="Capa_2" data-name="Capa 2">
        <g id="Capa_1-2" data-name="Capa 1">
            <rect class="cls-1" width="74.5" height="73.03" rx="16.46"/>
            <polygon class="cls-2"
                     points="53.13 16.66 53.13 21.8 46.59 15.26 43.79 18.06 50.33 24.6 45.19 24.6 45.19 28.57 57.1 28.57 57.1 16.66 53.13 16.66"/>
            <polygon class="cls-2"
                     points="29.31 48.43 29.31 44.46 17.39 44.46 17.39 56.37 21.36 56.37 21.36 51.24 27.9 57.78 30.71 54.97 24.17 48.43 29.31 48.43"/>
            <path class="cls-2"
                  d="M51.15,30.56H37.25a4,4,0,0,0-4,4V52.4a4,4,0,0,0,4,4h13.9a4,4,0,0,0,4-4V34.53A4,4,0,0,0,51.15,30.56ZM37.25,52.4V34.53h13.9V52.4Z"/>
            <path class="cls-2"
                  d="M23.35,20.63h13.9v7.94h4V20.63a4,4,0,0,0-4-4H23.35a4,4,0,0,0-4,4V38.5a4,4,0,0,0,4,4h7.94v-4H23.35Z"/>
        </g>
    </g>
</svg>
